necesito el de correo <svg xmlns="http://www.w3.org/2000/svg" viewBox="0 0 24 24" fill="currentColor">
  <path d="M7.88 12.04q0 .45-.11.87-.1.41-.33.74-.22.33-.58.52-.37.2-.87.2t-.85-.2q-.35-.21-.57-.55-.22-.33-.33-.75-.1-.42-.1-.86t.1-.87q.1-.43.34-.76.22-.34.59-.54.36-.2.87-.2t.86.2q.35.21.57.55.22.34.31.77.1.43.1.88zM1.14 8.96C.51 8.96 0 9.47 0 10.09v10.37c0 .61.51 1.14 1.14 1.14h21.71c.63 0 1.14-.51 1.14-1.14V5.59c0-.63-.51-1.14-1.14-1.14H14.3l-.93-1.42c-.25-.37-.67-.6-1.12-.6H6.08c-.45 0-.87.23-1.12.6l-.93 1.42H1.14zM10.93 14.52c0-.77-.15-1.43-.44-1.98-.29-.55-.7-.98-1.22-1.29-.52-.31-1.12-.47-1.8-.47s-1.28.16-1.8.47c-.52.31-.93.74-1.22 1.29-.29.55-.44 1.21-.44 1.98s.15 1.43.44 1.98c.29.55.7.98 1.22 1.29.52.31 1.12.47 1.8.47s1.28-.16 1.8-.47c.52-.31.93-.74 1.22-1.29.29-.55.44-1.21.44-1.98z"/>
</svg>
